# xmcd
#
# Track frame offsets:
#	150
#	21515
#	42330
#	54380
#	70920
#	84400
#	102725
#	122052
#	143165
#	154210
#	176905
#	193217
#	200545
#	221510
#	241127
#
# Disc length: 3381 seconds
#
# Revision: 1
# Processed by: cddbd v1.5.2PL0 Copyright (c) Steve Scherf et al.
# Submitted via: audiograbber 1.81.03
#
DISCID=e20d330f
DTITLE=The Famous Potatoes - Barndancing
DYEAR=1998
DGENRE=Country
TTITLE0=Cherokee Shuffle
TTITLE1=Newton Grove
TTITLE2=Choupique Two Step
TTITLE3=All The Way To Galway
TTITLE4=Rakes Of Kildare
TTITLE5=Blue Moon Of Kentucky
TTITLE6=Thirty Pound Waltz
TTITLE7=Springfield Girl
TTITLE8=Viva Seguin
TTITLE9=Jambalaya
TTITLE10=Maxwell Smart
TTITLE11=Lament For The Death Of The Rev. Archie Beaton
TTITLE12=Eight Of January
TTITLE13=Hindustan
TTITLE14=The Repeal Of The Licensing Laws
EXTD=The Hall's full, the couples are on the dance floor nd Keith talks them th
EXTD=rough the "Oxo Reel" . The Famous Potaties swing into "All the Way To Galw
EXTD=ay" and another Saturday night Barn dance is under way. It's been this way
EXTD=since 1979 when the band formed and began their stomping-up of English, I
EXTD=rish and American Folk Dance Tunes. Since then, there have beena series of
EXTD=recordings, festivals, radio and T appearances, but they have always remi
EXTD=ned closeto their roots, playing for dances across the south east and some
EXTD=times further afield. \n...\nThis recording aims to recreate the excitemen
EXTD=t of a Famous Potatoes barn dance. We hop you enjoy it as much as we did m
EXTD=aking it!\n\nKeith Baxter: percussion , trombone\nRichard Baxter: vocals, 
EXTD=melodeons, saxophone\nNigel Blackaby: bass guitar, vocals\nPaul Collier: d
EXTD=rums vocals\nMelanie Derbyshire: recorder, vocals\nTony Littman: guitar, v
EXTD=ocals\nProf. Paul McDowell: accordion, piano, vocals\nCharlie Skelton: fid
EXTD=dle\nRecorder and produced by Paul Dawson \nat Paul M's, Essex\nArtwork: L
EXTD=iza Collins \nGraphics: Ian Forth\nPhotography: Ian Derbyshire\n\nDedicate
EXTD=d to Richard Reynolds (1957-94]\n\nThanks to: Kate, Laura, Diana, Ian, Ter
EXTD=esa, The Grand Ceilidh Club, Greenbelt festival, Skjaergaordsgospel, hoy a
EXTD=t anchor folk club. Craig Baguley, Cjhris Brunton, Rick Christian, Donald 
EXTD=Clark, Nigel Groffiths, Fiona Maltby, John May, Prof. Ken MacKinnon, Steve
EXTD=McNamee, Nick Pyn, John Tobler, Sean Wyer\n
EXTT0=
EXTT1=
EXTT2=
EXTT3=
EXTT4=
EXTT5=
EXTT6=
EXTT7=
EXTT8=
EXTT9=
EXTT10=
EXTT11=
EXTT12=
EXTT13=
EXTT14=
PLAYORDER=
